<svg width="19" height="19" viewBox="0 0 19 19" fill="none" xmlns="http://www.w3.org/2000/svg">
<path d="M14.2295 10.9081C14.0322 11.0993 13.9416 11.3758 13.9865 11.6469L14.6636 15.3941C14.7207 15.7117 14.5867 16.0331 14.3209 16.2166C14.0604 16.407 13.7139 16.4299 13.4298 16.2775L10.0566 14.5182C9.93931 14.4557 9.80908 14.4222 9.6758 14.4184H9.4694C9.39781 14.4291 9.32774 14.4519 9.26376 14.487L5.88982 16.2547C5.72303 16.3385 5.53415 16.3682 5.34908 16.3385C4.8982 16.2532 4.59737 15.8236 4.67124 15.3705L5.34908 11.6233C5.39401 11.3499 5.30338 11.0719 5.10612 10.8777L2.35594 8.21201C2.12594 7.98886 2.04597 7.65375 2.15107 7.35138C2.25313 7.04978 2.5136 6.82968 2.82814 6.78017L6.61335 6.23105C6.90124 6.20134 7.1541 6.02617 7.28357 5.76722L8.9515 2.34756C8.99111 2.2714 9.04213 2.20133 9.10383 2.14192L9.17237 2.08861C9.20817 2.04901 9.24929 2.01626 9.29499 1.9896L9.37801 1.95914L9.50748 1.90582H9.82812C10.1145 1.93553 10.3666 2.10689 10.4983 2.36279L12.1884 5.76722C12.3102 6.01627 12.5471 6.18916 12.8205 6.23105L16.6057 6.78017C16.9256 6.82587 17.1929 7.04674 17.2988 7.35138C17.3985 7.65679 17.3125 7.9919 17.0779 8.21201L14.2295 10.9081Z" fill="#F6B76F"/>
</svg>
